<svg width="34" height="34" viewBox="0 0 34 34" fill="none" xmlns="http://www.w3.org/2000/svg">
<g filter="url(#filter0_d)">
<path d="M1.03844 29.4419L1 29.5047V29.5107L1.03844 29.4419Z" fill="#25D571"/>
<path d="M1.03844 29.4419L1 29.5047V29.5107L1.03844 29.4419Z" fill="url(#paint0_radial)"/>
<path d="M1 32V31.9436L9.74255 16.3126L18.5167 32H1Z" fill="#25D571"/>
<path d="M1 32V31.9436L9.74255 16.3126L18.5167 32H1Z" fill="url(#paint1_radial)"/>
<path d="M20.809 31.9695C24.0223 31.7267 26.9199 30.0473 29.0831 27.4466L13.732 0H2.9282L20.809 31.9695Z" fill="#25D571"/>
<path d="M20.809 31.9695C24.0223 31.7267 26.9199 30.0473 29.0831 27.4466L13.732 0H2.9282L20.809 31.9695Z" fill="url(#paint2_radial)"/>
<path d="M33 16C33 19.6178 32.0244 22.9551 30.3794 25.6352L16.0415 0H20C27.1797 0 33 7.16344 33 16Z" fill="#25D571"/>
<path d="M33 16C33 19.6178 32.0244 22.9551 30.3794 25.6352L16.0415 0H20C27.1797 0 33 7.16344 33 16Z" fill="url(#paint3_radial)"/>
</g>
<defs>
<filter id="filter0_d" x="0" y="0" width="34" height="34" filterUnits="userSpaceOnUse" color-interpolation-filters="sRGB">
<feFlood flood-opacity="0" result="BackgroundImageFix"/>
<feColorMatrix in="SourceAlpha" type="matrix" values="0 0 0 0 0 0 0 0 0 0 0 0 0 0 0 0 0 0 127 0"/>
<feOffset dy="1"/>
<feGaussianBlur stdDeviation="0.5"/>
<feColorMatrix type="matrix" values="0 0 0 0 0 0 0 0 0 0 0 0 0 0 0 0 0 0 0.25 0"/>
<feBlend mode="normal" in2="BackgroundImageFix" result="effect1_dropShadow"/>
<feBlend mode="normal" in="SourceGraphic" in2="effect1_dropShadow" result="shape"/>
</filter>
<radialGradient id="paint0_radial" cx="0" cy="0" r="1" gradientUnits="userSpaceOnUse" gradientTransform="translate(28.5 29) rotate(-121.357) scale(37.4733 38.5315)">
<stop stop-color="#14B9D2"/>
<stop offset="1" stop-color="#18BFBE" stop-opacity="0"/>
</radialGradient>
<radialGradient id="paint1_radial" cx="0" cy="0" r="1" gradientUnits="userSpaceOnUse" gradientTransform="translate(28.5 29) rotate(-121.357) scale(37.4733 38.5315)">
<stop stop-color="#14B9D2"/>
<stop offset="1" stop-color="#18BFBE" stop-opacity="0"/>
</radialGradient>
<radialGradient id="paint2_radial" cx="0" cy="0" r="1" gradientUnits="userSpaceOnUse" gradientTransform="translate(28.5 29) rotate(-121.357) scale(37.4733 38.5315)">
<stop stop-color="#14B9D2"/>
<stop offset="1" stop-color="#18BFBE" stop-opacity="0"/>
</radialGradient>
<radialGradient id="paint3_radial" cx="0" cy="0" r="1" gradientUnits="userSpaceOnUse" gradientTransform="translate(28.5 29) rotate(-121.357) scale(37.4733 38.5315)">
<stop stop-color="#14B9D2"/>
<stop offset="1" stop-color="#18BFBE" stop-opacity="0"/>
</radialGradient>
</defs>
</svg>
