<svg version="1" xmlns="http://www.w3.org/2000/svg" width="293.333" height="293.333" viewBox="0 0 220.000000 220.000000"><path d="M8.4 7.1c-.3.6 4.1 8.2 41.1 70.4C59.3 94 75.2 120.8 84.8 137c36 60.7 45.3 76 46.1 75.6.4-.3 1.8-.7 3.2-1 12.5-2.4 23.6-6.6 34.4-13.2 9.5-5.8 17.8-13.2 17-15.2-.3-.9-5.1-9.2-10.7-18.6-5.5-9.4-18.9-32-29.6-50.1C126.3 82.5 82 7.9 81.4 7.1c-.5-.6-72.6-.6-73 0zM98.5 7.1c-.2.3 4 7.9 9.4 17 12.7 21.4 24.3 41 25.6 43.1 1.3 2.3 36.1 60.6 39.8 66.7 1.5 2.5 3 5.4 3.4 6.3.3 1 .9 1.8 1.3 1.8s1 .8 1.4 1.8c.3.9 1 2.4 1.6 3.2 1.9 2.7 13.9 23.2 14.3 24.3 1.6 4.8 15.4-20.4 18.2-33.3.2-.8.8-3.5 1.4-6 4.2-17 2.4-41.8-4.2-58.6-9.4-23.6-26.3-42.7-48-54.4-7.1-3.8-22.3-9.3-28.9-10.4-8.1-1.4-34.7-2.6-35.3-1.5zM59.6 113.6c-.3.8-5.2 9.3-10.8 18.7-5.7 9.5-10.8 18.1-11.4 19.2-2.9 5.3-25.9 44.1-26.4 44.5-.3.3-1.2 1.8-2 3.5-.8 1.6-1.9 3.7-2.5 4.5-.7.8-2.4 3.7-3.9 6.3l-2.7 4.8 59.9-.3c33-.2 60.3-.6 60.7-.9.7-.8-1-3.8-10.3-19.4-3.7-6.1-7.4-12.2-8.2-13.6-.8-1.5-5.3-9-10-16.8-4.7-7.8-9.2-15.4-10.1-16.9-8-13.6-21-35.2-21.3-35.2-.2 0-.7.7-1 1.6z"/></svg>